/* XPM */
static char *_80cda815ce745b7a7514cbb70d0c0b7jpRSQBpE5bsRSTmK[] = {
/* columns rows colors chars-per-pixel */
"32 32 181 2 ",
"   c #3D5B1C",
".  c #010000",
"X  c #0A0500",
"o  c #0D0A00",
"O  c #000909",
"+  c gray5",
"@  c #140700",
"#  c #130B00",
"$  c #1D0D00",
"%  c #161104",
"&  c #1D1300",
"*  c #191509",
"=  c #141414",
"-  c #1E1B12",
";  c #1C1C1C",
":  c #280D00",
">  c #231400",
",  c #2C1500",
"<  c #251900",
"1  c #2C1E00",
"2  c #381600",
"3  c #3A1A00",
"4  c #311800",
"5  c #211E13",
"6  c #152900",
"7  c #322200",
"8  c #392400",
"9  c #2B271D",
"0  c #2B291F",
"q  c #252117",
"w  c #272727",
"e  c #292929",
"r  c #333333",
"t  c #3D3D3D",
"y  c #3F3D35",
"u  c #401F00",
"i  c #4D1D00",
"p  c #452000",
"a  c #462F00",
"s  c #4D2200",
"d  c #522400",
"f  c #5E2600",
"g  c #502F00",
"h  c #5B2C00",
"j  c #473100",
"k  c #4D3400",
"l  c #533300",
"z  c #5F3100",
"x  c #543A00",
"c  c #5B3D00",
"v  c #612600",
"b  c #642C00",
"n  c #6B2D00",
"m  c #6A2500",
"M  c #742E00",
"N  c #6D3200",
"B  c #653900",
"V  c #6E3B00",
"C  c #643400",
"Z  c #713000",
"A  c #7D3600",
"S  c #763D00",
"D  c #7C3C00",
"F  c #5F4100",
"G  c #644300",
"H  c #6D4700",
"J  c #6E4A00",
"K  c #794500",
"L  c #754C00",
"P  c #7F5700",
"I  c #494949",
"U  c #514F48",
"Y  c gray32",
"T  c gray36",
"R  c #62605A",
"E  c #636362",
"W  c #777777",
"Q  c #843700",
"!  c #8F3700",
"~  c #8E3E00",
"^  c #833D00",
"/  c #953F00",
"(  c #834200",
")  c #8B4600",
"_  c #834B00",
"`  c #944400",
"'  c #9B4700",
"]  c #934C00",
"[  c #9C4B00",
"{  c #835A00",
"}  c #895D00",
"|  c #955F00",
" . c #9B5B00",
".. c #A44600",
"X. c #A24C00",
"o. c #AD4A00",
"O. c #B34C00",
"+. c #A25100",
"@. c #AA5B00",
"#. c #A65B00",
"$. c #BE5E00",
"%. c #B25E00",
"&. c #8D6000",
"*. c #976700",
"=. c #A46E00",
"-. c #AC6A00",
";. c #A16300",
":. c #BB6300",
">. c #BB6900",
",. c #B36500",
"<. c #AC7400",
"1. c #B27700",
"2. c #BA7D00",
"3. c #B37900",
"4. c #C85300",
"5. c #C95C00",
"6. c #DC5E00",
"7. c #C26A00",
"8. c #C26500",
"9. c #D36E00",
"0. c #DB6B00",
"q. c #D26600",
"w. c #C07300",
"e. c #C87000",
"r. c #C67800",
"t. c #D27400",
"y. c #D37900",
"u. c #E36A00",
"i. c #F36600",
"p. c #EC7B00",
"a. c #F17600",
"s. c #F57E00",
"d. c #BE8200",
"f. c #C28400",
"g. c #CC8900",
"h. c #D48E00",
"j. c #D69100",
"k. c #DC9400",
"l. c #DE9800",
"z. c #E98400",
"x. c #FE8B03",
"c. c #F88603",
"v. c #E49B00",
"b. c #E99D00",
"n. c #FF9302",
"m. c #FF930B",
"M. c #FF8C13",
"N. c #FF8618",
"B. c #FF8514",
"V. c #FF9112",
"C. c #FF9D1E",
"Z. c #E7A400",
"A. c #ECA000",
"S. c #F3A400",
"D. c #F9A700",
"F. c #FDAB02",
"G. c #FFA309",
"H. c #FFB102",
"J. c #FFB30C",
"K. c #FFA317",
"L. c #FFB414",
"P. c #FFB318",
"I. c #FFB91A",
"U. c #FF9C26",
"Y. c #FFA622",
"T. c #FFB924",
"R. c #FFBB2D",
"E. c #FFB234",
"W. c #FFBD34",
"Q. c #FFB63D",
"!. c #FFBE3A",
"~. c #FFC13E",
"^. c #FFC133",
"/. c #FFBE47",
"(. c #FFBE4F",
"). c #FFC344",
"_. c #FFC44D",
"`. c #FFC753",
"'. c #FFC956",
"]. c gray53",
"[. c gray54",
/* pixels */
"                                                                ",
"                                                                ",
"          o o o o o o # # o * 5 R                               ",
"          8 } f.F.J.A.k.*.x % * % * E                           ",
"      X 2._.'.R.S.h.v.L.^.v.#     o o - E                       ",
"      f.'.R.J     X     X X $ , , > > $ & % = E                 ",
"      ).`.F     $   # ( e.7.4.q.8.%. .~ K V $ # + [.            ",
"      ~.`.<   X   6 ) ,.r.z.a.9.7.y.8./ A [ h                   ",
"      b.`.8     4 >.u.i.c.Z.c.n.V.i.7.f.>.D . j >               ",
"      c '.3.    & ( { >.p.B.m.m.C.V.a.t.M m X r.I.8             ",
"        k.`.F   X h B G / $.B.(.c.:.*.^ N C X G.'.W.k           ",
"        # R.).k @ p S K K D @.x.5.) N C D ~ $ L '.'.^.<         ",
"          l ~.'.p.2 3 Z ( S ) %./ f v C ^ ` %   F `.`.k.        ",
"            7 P.'.Y.' X d K X...i b n n Q N   o   L `.'.x       ",
"              S.'.'.).s.s . V ..i v b n Z p   @     b.'.A       ",
"          X b.).L x.`.'.E.9.> . 2 d v d h           x '.T       ",
"          *.'.}   ! N.Q.'.'.E.t.i X X X X X X       F '.R       ",
"        < ).F.X   @ A 6.M.E.`.`.(.K.z.0.D       < &.W.'.T       ",
"        2.'.k     , d . n 6.B.U.Q.'.'.'.!.J.J.P.`.'.'.'.H       ",
"        T.W.X     2 ' ` l X s o.O.0.V.n.g.v.k.k.g.} 1.'.d       ",
"      l `.d.      @ ~ [  .X.V , X , n i . X         S.'.x       ",
"      P '.=.        , ) @.@.] D ) _ z h . #       J '.v.        ",
"      P `.<.      X   3 ' -._ ( ] @.-.8 . #     & T.`.8         ",
"      J `.F.        #   l @.K ) [ >.x . X       D.'.<.          ",
"      & ).`.4         o O _ ) ) @.h . X X   o k.'.2.            ",
"        j.'.H.o       #   < | ) 4   X     j P.`.d.              ",
"        < !.'.j.#       >   : >   $   & =.'.`.&.                ",
"          G W.'.T.{ 7     X     > x 2.).'.F.a                   ",
"            1 v.`.'.`.P.k.j.k.L.`.`.`.D.c                       ",
"                H g.P.).`.)._.W.D.<.j                           ",
"                                                                ",
"                                                                "
};
