/* XPM */
static char *_1fc4d7fc08743539ae42b68cb7250b2CUTYtpVzXKEnm8xV[] = {
/* columns rows colors chars-per-pixel */
"32 32 2 1 ",
"  c grey",
". c black",
/* pixels */
"                                ",
"                                ",
"                                ",
"         ...........            ",
"        .................       ",
"        ...................     ",
"       .....................    ",
"      .....           ......    ",
"    ......                      ",
"   ......                       ",
"  ......                        ",
"  .....                         ",
"  .....                         ",
"  ....                          ",
" .....                          ",
" .....                          ",
" .....                          ",
" .....                          ",
" .....                          ",
"  ....                          ",
"  .....                         ",
"  .....                         ",
"   .....                        ",
"    .....                       ",
"    .....                  .... ",
"     .....               ...... ",
"      ......           ........ ",
"       ..........  ...........  ",
"        ...................     ",
"          ................      ",
"           .   ......  .        ",
"                                "
};
