/* XPM */
static char *dc493be93cf94d5ee2bf8f6a2d5f960fOnuvVg6A8IvZqhtR[] = {
/* columns rows colors chars-per-pixel */
"32 32 2 1 ",
"  c grey",
". c yellow",
/* pixels */
"                                ",
"  ....                          ",
" ......                         ",
"   .....                        ",
"    ......                      ",
"      .....               ......",
"      ......             .....  ",
"       .....           ......   ",
"       ......        ......     ",
"        ......     .......      ",
"         ......   ......        ",
"          ...... ......         ",
"           ..........           ",
"            ........            ",
"             ......             ",
"            .......             ",
"            ........            ",
"           ..........           ",
"          ............          ",
"         ......  ......         ",
"        ......    ......        ",
"       .....       ......       ",
"      .....         ......      ",
"      .....          ......     ",
"     .....            .....     ",
"    .....              .....    ",
"    .....               .....   ",
"   .....                 .....  ",
"   ....                   ..... ",
"                          ......",
"                           .....",
"                             .. "
};
