/* XPM */
static char *c397204c440241aa9cc9f24c8bb4c7dczDezqSZK7fnF0yJq[] = {
/* columns rows colors chars-per-pixel */
"32 32 188 2 ",
"   c #3D5B1C",
".  c black",
"X  c #0E241A",
"o  c #122515",
"O  c #1A2A1E",
"+  c #16271C",
"@  c #232D1F",
"#  c #182B20",
"$  c #162E26",
"%  c #163024",
"&  c #163B34",
"*  c #232E22",
"=  c #233124",
"-  c #283527",
";  c #283528",
":  c #373827",
">  c #3F3F2C",
",  c #303525",
"<  c #313D32",
"1  c #1E423E",
"2  c #24423D",
"3  c #29423F",
"4  c #3E473C",
"5  c #47432C",
"6  c #484530",
"7  c #494832",
"8  c #44493C",
"9  c #494A38",
"0  c #534E3B",
"q  c #544D32",
"w  c #4F503F",
"e  c #55523B",
"r  c #5D553A",
"t  c #595237",
"y  c #645B3D",
"u  c #6A5F3F",
"i  c #6C603F",
"p  c #324640",
"a  c #394740",
"s  c #334841",
"d  c #3C4B45",
"f  c #3D4F4A",
"g  c #3A5053",
"h  c #424E45",
"j  c #4A4F40",
"k  c #4B5245",
"l  c #4A554F",
"z  c #545344",
"x  c #5C5743",
"c  c #585847",
"v  c #5B5949",
"b  c #50554C",
"n  c #445453",
"m  c #4D5A57",
"M  c #4C5C5C",
"N  c #485958",
"B  c #515950",
"V  c #525D5A",
"C  c #655C42",
"Z  c #695E41",
"A  c #645E4B",
"S  c #5D645C",
"D  c #6D6143",
"F  c #64614E",
"G  c #6B634D",
"H  c #716447",
"J  c #756847",
"K  c #72664B",
"L  c #75684D",
"P  c #796B4C",
"I  c #626152",
"U  c #6E6753",
"Y  c #6E6B5B",
"T  c #766B54",
"R  c #7A6D53",
"E  c #766F5C",
"W  c #786E58",
"Q  c #7D7053",
"!  c #7C735D",
"~  c #526464",
"^  c #5F6A69",
"/  c #6C6D63",
"(  c #676E69",
")  c #696E69",
"_  c #636C66",
"`  c #736D62",
"'  c #6D726E",
"]  c #7C7361",
"[  c #72746B",
"{  c #636F70",
"}  c #6B7270",
"|  c #747773",
" . c #7D7C72",
".. c #757C76",
"X. c #82745A",
"o. c #827762",
"O. c #8A7B63",
"+. c #867C6B",
"@. c #897E6A",
"#. c #877B64",
"$. c #807C73",
"%. c #8D8169",
"&. c #908066",
"*. c #93846C",
"=. c #98876F",
"-. c #8C8374",
";. c #83827C",
":. c #8B857B",
">. c #928571",
",. c #968A75",
"<. c #9B8A73",
"1. c #958A7F",
"2. c #998C7E",
"3. c #A28F78",
"4. c #A4927B",
"5. c #A9967D",
"6. c #AB987E",
"7. c #948E83",
"8. c #9A9287",
"9. c #9C968B",
"0. c #A39485",
"q. c #AA9780",
"w. c #AC9A82",
"e. c #A2968A",
"r. c #AA9788",
"t. c #A4988B",
"y. c #B29D84",
"u. c #B29E8D",
"i. c #AE9F91",
"p. c #A69E94",
"a. c #B7A287",
"s. c #B5A28B",
"d. c #BBA58A",
"f. c #B8A286",
"g. c #ADA093",
"h. c #B3A393",
"j. c #BBA591",
"k. c #BCAA9B",
"l. c #BEAC95",
"z. c #B6AFA3",
"x. c #BEAEA2",
"c. c #C3AC9B",
"v. c #C7B195",
"b. c #C6B19D",
"n. c #CBB29B",
"m. c #CAB396",
"M. c #C4B3A3",
"N. c #CCB5A3",
"B. c #CFB9A6",
"V. c #CEB7A9",
"C. c #CDBAAB",
"Z. c #D0B7A2",
"A. c #D2B9A6",
"S. c #D4BCAB",
"D. c #DABFAB",
"F. c #CFBDB0",
"G. c #D4BFB2",
"H. c #D6C0AF",
"J. c #DBC2AD",
"K. c #CEC0B4",
"L. c #D5C1B1",
"P. c #DBC4B3",
"I. c #DDC8B6",
"U. c #D3C6BA",
"Y. c #DBC7B8",
"T. c #D6C8B9",
"R. c #DDCABC",
"E. c #E0C5AF",
"W. c #E4CAB4",
"Q. c #E1CABA",
"!. c #E8CFBC",
"~. c #E1C7B4",
"^. c #ECD0B7",
"/. c #EDD2BF",
"(. c #DBCEC4",
"). c #DCD2C7",
"_. c #DED4C8",
"`. c #E3CEC0",
"'. c #E3D1C5",
"]. c #E3D6CA",
"[. c #E6D9CD",
"{. c #EAD6C9",
"}. c #F3D7C4",
"|. c #EAE6DD",
" X c #F3E4D6",
".X c #F4E5D8",
"XX c #ECF0EB",
"oX c #F7F3E9",
/* pixels */
"                                                                ",
"                                  U.M.V.                        ",
"                          J.I.D.I.[.R.P.P.c.A.                  ",
"                P.G.P.L.H./.P.E.R.).K.c.k.i.h.L.Y.              ",
"          S.Q. X.X{.'.G.H.S.D.W..XoX[.S.B.c.0. .D.              ",
"      D.}./.Y.Y.(._.T.8.M.D.E.W.^.W.J.J.A.b.h.-.A.              ",
"    Y.!.P.A.A.G.|.XX|.z.g.H.D.E.E.J.J.J.A.b.c.H.V.              ",
"  k.Q.N.N.A.S.Y._.(.T.g.;.g.S.Y.I.J.J.P.P.R.J.C.8.              ",
"x.Y.S.c.S.A.Z.S.Z.n.r.3 n ( p.x.M.C.U.].T.M.7.|                 ",
"g.P.S.M.Z.N.Z.c.v.j.b d h d M ^ { ..7.7.7...                    ",
"| G.~.M.c.m.v.j.j.+.2 f d d d f f g ~ N ~                       ",
"  9.~.~.A.c.d.d.j.@.1 l d p 2 p d _ )  .e.S                     ",
"  ) e.M.L.H.B.c.j.j.` p a l ` @.r.c.N.D.B.Y 6.6.y.              ",
"    '  .7.g.c.C.G.D.G.V.G.G.P.Q.Y.`.`.{.L.&.w.y.a.6.4.          ",
"      { $.:.:.1.t.i.x.M.V.G.(.].].[.'.'.k.*.@.%.4.5.d.4.        ",
"        M _ ' ) |  .-.7.7.0.0.0.i.Z.N.h.@.X.X.X.O.X.<.w.d.s.    ",
"        h & f d n m N V V V m l l ` I R X.P R T T T T @.5.y.    ",
"      5.6.=.4 % - % * O o o o o o . 5 P L L L K G K U U >.5.y.  ",
"      4.a.a.O.< $ - ; = * * @ * * O t H K H H H D A G D ] q.d.n.",
"      3.6.5.*.Q 6 O X + O # O O X X y Z Z H D Z A Z A A U 3.y.a.",
"      4.4.f.X.R Q Z 6 > - @ O @ : t Z Z Z u H Z C C C x I 4.y.w.",
"      -.<.q.<.P P P J D D u y y Z Z u Z Z Z Z H C C x 0 ] y.v.4.",
"      / 6.<.4.Q G J D D D D Z Z Z Z u y u Z Z Z C r 0 A ,.y.v.! ",
"      p >.<.4.=.R D D D D Z u y u u y y Z u Z Z C t z *.3.v.5.  ",
"        z ! >.w.4.*.D y y u Z u y y Z u u y C C r 6 ] w.y.6.A   ",
"          j v +.w.u.6.=.X.R H u y y r y y r t q C o.4.s.,.G     ",
"            z G U @.4.6.y.w.4.*.X.J G D D T #.w.h.k.w.! A       ",
"              v F R O.@.=.s.q.w.y.y.w.w.w.h.M.s.,.] G c         ",
"                  k I ! #.@.E ] %.-.@.#.@.o.E x e c             ",
"                        c w 4 8 4 k F F x k k                   ",
"                                                                ",
"                                                                "
};
