/* XPM */
static char *_a56a0c2bba142a1a7de2195b98cf860kt76efYRvE2a8Nnk[] = {
/* columns rows colors chars-per-pixel */
"32 32 2 1 ",
"  c grey",
". c black",
/* pixels */
"                                ",
"                                ",
"                                ",
"    ........................    ",
"   ........................     ",
"   ....                         ",
"   ....                         ",
"  .....                         ",
"  ....                          ",
"  ....                          ",
"  ....                          ",
"  ....                          ",
"  ....                          ",
"  ....                          ",
"  ....     ............         ",
"  .......................       ",
"  ........... ...... ...        ",
"  .......                       ",
"  ....                          ",
"  ....                          ",
"  ....                          ",
"  ....                          ",
"  ....                          ",
"  ....                          ",
"  ....                          ",
"  ....                          ",
"  .....                         ",
"   ....               ......    ",
"   .........................    ",
"   ........................     ",
"    ....                        ",
"                                "
};
