/* XPM */
static char *_8ac0427c6f34c90ad2609edca76ca510PCT6E24cdXJV6nc[] = {
/* columns rows colors chars-per-pixel */
"32 32 7 1 ",
"  c #36461F",
". c #3D5B1C",
"X c #55711F",
"o c #7D4A4A",
"O c #BC7070",
"+ c #6F8922",
"@ c #D59861",
/* pixels */
"................................",
"................................",
"................................",
"................................",
"................................",
"................................",
"......................+.........",
"......................X.........",
"...............++...  X.........",
".............XXX  ...  .+.......",
"........++X..XX  ......X+.......",
".......  XXX...........X........",
"........  X......X++ ...........",
"................X@+ ....@@......",
"................@@ ... OO@......",
"........@@......@O.@  OOO.......",
"........@OO ....O  OO O   ......",
".........OOO  @.Ooo Oo o........",
"........   O OO ooOOoo.oo.......",
"..........o oOOOoOOoo.. o.......",
".........oo.oOOooo  oo.. .......",
".........o ..OooO@@  OO.........",
"......... .....O@@oO@@OO........",
"...............O...OO@@.........",
"....................O...........",
"................................",
"................................",
"................................",
"................................",
"................................",
"................................",
"................................"
};
