/* XPM */
static char *_0fbce08fe994bd8c4fcafdae0d41f4av0AiPfPPmsXkOx2p[] = {
/* columns rows colors chars-per-pixel */
"32 32 2 1 ",
"  c grey",
". c white",
/* pixels */
"                                ",
"          .....                 ",
"      .............             ",
"      ...       .....           ",
"      ...         ....          ",
"      ...          .....        ",
"      ...            ....       ",
"      ...             ....      ",
"      ...             .....     ",
"      ...              ....     ",
"      ...               ....    ",
"     ....               ....    ",
"     ...                ....    ",
"     ....              ....     ",
"      ...             ....      ",
"      ...             ....      ",
"      ...            ....       ",
"      ...          .....        ",
"      ...        .....          ",
"      ...     ......            ",
"      ............              ",
"      .......                   ",
"     ....                       ",
"     ...                        ",
"     ...                        ",
"     ...                        ",
"     ...                        ",
"     ...                        ",
"     ...                        ",
"     ...                        ",
"     ...                        ",
"     ...                        "
};
