/* XPM */
static char *_b92cdfa9d9147b7ca28c731dc3bc6d7DGgctQLTm4hGsUbO[] = {
/* columns rows colors chars-per-pixel */
"32 32 173 2 ",
"   c #3D5B1C",
".  c black",
"X  c #000015",
"o  c #3D0000",
"O  c #15102B",
"+  c #1B1B2C",
"@  c #181A31",
"#  c #1F212C",
"$  c #28222D",
"%  c #25282E",
"&  c #2B2A2F",
"*  c #2B2A34",
"=  c #2C2739",
"-  c #2D2B3A",
";  c #262432",
":  c #302D37",
">  c #302F3A",
",  c #34323C",
"<  c #3A393E",
"1  c #4D0000",
"2  c #442F38",
"3  c #37453E",
"4  c #43443B",
"5  c #353541",
"6  c #3A3543",
"7  c #3C3A44",
"8  c #3F3C48",
"9  c #413E46",
"0  c #423E49",
"q  c #443143",
"w  c #414047",
"e  c #44424B",
"r  c #4A454C",
"t  c #4C484F",
"y  c #55464D",
"u  c #58474F",
"i  c #4D4B52",
"p  c #574A54",
"a  c #524F58",
"s  c #584D53",
"d  c #54525B",
"f  c #5A545B",
"g  c #555859",
"h  c #61555B",
"j  c #62595F",
"k  c #6A5D63",
"l  c #635A64",
"z  c #6C646A",
"x  c #726263",
"c  c #766D6F",
"v  c #6F6B76",
"b  c #756B72",
"n  c #7A6D73",
"m  c #7C757C",
"M  c #7F797E",
"N  c #8D0000",
"B  c #82595D",
"V  c #896C6F",
"C  c #956367",
"Z  c #837F7F",
"A  c #877778",
"S  c #7E7D89",
"D  c #867D83",
"F  c #897D85",
"G  c #8B8286",
"H  c #8C8289",
"J  c #908086",
"K  c #92858A",
"L  c #958A8C",
"P  c #988B8F",
"I  c #998C91",
"U  c #968F98",
"Y  c #958992",
"T  c #939294",
"R  c #9E9196",
"E  c #9E9499",
"W  c #A09195",
"Q  c #A2959B",
"!  c #A49A9D",
"~  c #A89A9E",
"^  c #AD969C",
"/  c #8F96A9",
"(  c #AB9CA2",
")  c #A19EA8",
"_  c #AEA2A5",
"`  c #ACA4AD",
"'  c #A7A7AC",
"]  c #B1A1A6",
"[  c #BAABAD",
"{  c #B4A7AD",
"}  c #AEAAB5",
"|  c #B3ACB4",
" . c #BBAEB3",
".. c #BCB4B6",
"X. c #BFB3B8",
"o. c #B9BBBF",
"O. c #B5B1B6",
"+. c #C1B3B4",
"@. c #C3B6BB",
"#. c #C5B9BC",
"$. c #CABCBD",
"%. c #C9C1BD",
"&. c #A1AEC2",
"*. c #A8B1C0",
"=. c #AEBDCD",
"-. c #A8B7C4",
";. c #B2B8C6",
":. c #BBBAC5",
">. c #B3BDCC",
",. c #CCBFC1",
"<. c #C6BAC9",
"1. c #BBC3D2",
"2. c #B6C9D8",
"3. c #BECEDD",
"4. c #B4C3DA",
"5. c #C7C6C7",
"6. c #CCC2C4",
"7. c #CFCBC7",
"8. c #C4C7CF",
"9. c #CDCBCC",
"0. c #D1C3C5",
"q. c #D3C6CA",
"w. c #D7CACD",
"e. c #DFCBCE",
"r. c #D2C9C6",
"t. c #C2CDD6",
"y. c #CBCCD6",
"u. c #D4CDD3",
"i. c #D9CFD0",
"p. c #CFD2D5",
"a. c #C5D3DF",
"s. c #CCD4DC",
"d. c #DDD4D5",
"f. c #D6D9D7",
"g. c #D4D6DB",
"h. c #DBDDDF",
"j. c #D3D4D1",
"k. c #E2D4D4",
"l. c #E2D4D8",
"z. c #E4DBDD",
"x. c #CDD5E4",
"c. c #CADAEA",
"v. c #D2D6E3",
"b. c #D5DBE3",
"n. c #DBDEE3",
"m. c #D6DFE9",
"M. c #DDDFE8",
"N. c #EBDEE3",
"B. c #DEE2E5",
"V. c #DCE2EA",
"C. c #D4E7FB",
"Z. c #D0E4F4",
"A. c #E2E4E6",
"S. c #EAE2E5",
"D. c #E2E5EB",
"F. c #EEE6EA",
"G. c #E5E9EC",
"H. c #EAECEE",
"J. c #F3E5EB",
"K. c #F2E3E2",
"L. c #EEF1EF",
"P. c #E7EDF1",
"I. c #EBEEF2",
"U. c #FAEEF3",
"Y. c #EEF1F1",
"T. c #EDF1F5",
"R. c #EBF2F5",
"E. c #EEF1F9",
"W. c #EEF5FC",
"Q. c #F0F2F1",
"!. c #F4F5F5",
"~. c #F1F4F9",
"^. c #F7F9FC",
/* pixels */
"                                                    f s k F     ",
"                                              [ x u y u D R     ",
"z p p h x D [                 V.D.V.D.V.V.M.g.) S v l Y @. .    ",
"P J k 2 q b  .D.D.V.D.H.G.B.~.^.~.E.~.~.E.V.M.D.D.m.>.:.u.#.    ",
"  ( ` } 8.M.P.G.A.D.B.n.B.B.A.h.A.h.b.B.D.D.D.M.D.G.m.x.v.y.    ",
"  | m.P.R.P.H.D.H.D.A.H.I.L.Q.h.A.Y.G.B.A.A.G.D.P.P.P.P.E.M.    ",
"  v.E.H.B.G.H.D.H.H.Y.H.H.L.Q.A.G.H.Q.L.A.g.n.H.G.n.G.D.D.P.    ",
"  V.Y.G.H.G.A.H.!.H.h.H.A.Q.H.H.H.A.S.!.^.H.h.A.H.G.b.V.m.V.W.x.",
"b.R.D.B.R.A.H.L.B.5.5.H.H.L.A.Q.L.G.5.u.A.Q.G.V.D.I.b.v.V.3.V.  ",
"s.V.b.b.H.B.G.j.T m Z 5.Q.L.A.L.f.' V B c T o.p.D.P.B.t.V.c.>.  ",
"4.C.3.t.p.g.p.Z . N o 3 %.z.z.h...g 1 N . . ! r.9.h.g.8.c.2.} <.",
"  1.;.-.=.3.:.H n C V E %.i.h.d.z.w. .^ _ ,.q.0.r.9.y.u.a.Z.4.  ",
"      &.=.-.' Q Q ! ..q.d.w.#.z.L.J.F.N.k.,.@.,.$.#.#.....1.    ",
"          / U Q R Q _ ] @.+._ 6.q.0.q.r.#.[ ( ( ( (             ",
"                L P T I R Q Q ~ ~ ( ] ] ! Q ! I                 ",
"                w s j k c c n n b z j f t e i 7 <               ",
"              r 7 5 # i a O = > ; i d - - , - - 5 4             ",
"              H Q D - * 7 - 5 6 = : d f w ; a z H `             ",
"                ^ E i @ - 5 8 8 5 8 a 0 : X D q.F.J.            ",
"                    : - e 0 6 6 8 8 8 = 5 X M d.U.N.            ",
"                    7 = e 8 7 7 5 8 8 - 7 X D N.N.              ",
"                  r e = 5 0 7 8 5 7 - = r @ m 6.q.              ",
"                  9 e 6 5 0 7 6 0 5 - 8 0 > M                   ",
"                  9 7 9 8 6 5 6 8 7 7 8 5 w .                   ",
"                  t r w e e r e 7 9 7 < 9 e t                   ",
"                & 6 < , & & & # < 9 r t t i ,                   ",
"                b j i 0 9 7 $ f s % + X . . 9                   ",
"                { <.,.,.#.+.{ +.G G Z G Q ..w.$.                ",
"                ,.l.N.N.k.e.l.$.L ( [ w.N.J.K.,.                ",
"                ]  .$.,.,.X.    K Q  .u.N.N.l.,.                ",
"                                ~ @.@.w.z.z.k.[                 ",
"                                  ~ ] { {  .                    "
};
