/* XPM */
static char *fc3f989ad2c14486dafec8c551e453c9sY27KhgNswmoJ73o[] = {
/* columns rows colors chars-per-pixel */
"32 32 180 2 ",
"   c #3D5B1C",
".  c #020000",
"X  c #1B0100",
"o  c #001900",
"O  c #2A0000",
"+  c #270F00",
"@  c #3A0000",
"#  c #330E00",
"$  c #380A00",
"%  c #261406",
"&  c #2E1502",
"*  c #321500",
"=  c #351903",
"-  c #3C1C05",
";  c #381B0A",
":  c #002F00",
">  c #1C2B00",
",  c #013400",
"<  c #0B3700",
"1  c #003D00",
"2  c #0D3D05",
"3  c #143D03",
"4  c #1A3508",
"5  c #143B0A",
"6  c #193C0A",
"7  c #1D3F10",
"8  c #38270A",
"9  c #213903",
"0  c #242611",
"q  c #3A2917",
"w  c #253C1C",
"e  c #273B21",
"r  c #2C3E23",
"t  c #323022",
"y  c #333E27",
"u  c #4C0000",
"i  c #431F02",
"p  c #411D0F",
"a  c #431D13",
"s  c #442104",
"d  c #4A2405",
"f  c #412109",
"g  c #49250A",
"h  c #502700",
"j  c #542806",
"k  c #572B09",
"l  c #422315",
"z  c #432816",
"x  c #4D2813",
"c  c #512813",
"v  c #4B2C26",
"b  c #562C21",
"n  c #593623",
"m  c #004400",
"M  c #0B4300",
"N  c #014B00",
"B  c #0B4E00",
"V  c #144302",
"C  c #184306",
"Z  c #144B04",
"A  c #164509",
"S  c #1A440B",
"D  c #164A08",
"F  c #194A0A",
"G  c #1B4905",
"H  c #015300",
"J  c #0D5602",
"K  c #005C00",
"L  c #0C5B01",
"P  c #135404",
"I  c #105A07",
"U  c #16550A",
"Y  c #1A550D",
"T  c #155D0B",
"R  c #195B0C",
"E  c #1E4213",
"W  c #1E4B12",
"Q  c #1E5313",
"!  c #1C5D14",
"~  c #234616",
"^  c #214A14",
"/  c #26471A",
"(  c #28461E",
")  c #244B19",
"_  c #284B1D",
"`  c #235C17",
"'  c #245319",
"]  c #026200",
"[  c #0A6401",
"{  c #006D00",
"}  c #0F6C08",
"|  c #0F640C",
" . c #106103",
".. c #15640C",
"X. c #19630F",
"o. c #176D0F",
"O. c #19690E",
"+. c #007800",
"@. c #0C7C05",
"#. c #117103",
"$. c #1B6513",
"%. c #156E11",
"&. c #1A6C13",
"*. c #1E6D1A",
"=. c #1B7416",
"-. c #1C7C15",
";. c #1E7319",
":. c #1D7B19",
">. c #177812",
",. c #24641B",
"<. c #226D1C",
"1. c #20711D",
"2. c #227E1C",
"3. c #2E4C25",
"4. c #2D4024",
"5. c #324727",
"6. c #344B2B",
"7. c #38492F",
"8. c #2F5729",
"9. c #35552C",
"0. c #365C2D",
"q. c #3C4C33",
"w. c #3B5332",
"e. c #3D5C36",
"r. c #2D6729",
"t. c #287321",
"y. c #297C25",
"u. c #347A2D",
"i. c #376530",
"p. c #396234",
"a. c #414E39",
"s. c #465B3C",
"d. c #603749",
"f. c #53434A",
"g. c #515748",
"h. c #565A4D",
"j. c #5F5655",
"k. c #624D41",
"l. c #62555A",
"z. c #4B6E46",
"x. c #526A49",
"c. c #54724E",
"v. c #5B6452",
"b. c #69615B",
"n. c #63705A",
"m. c #6C5D63",
"M. c #7C5C70",
"N. c #6B6E61",
"B. c #7C6E67",
"V. c #74616A",
"C. c #697261",
"Z. c #76796D",
"A. c #7E6473",
"S. c #7A6A71",
"D. c #7A7172",
"F. c #806475",
"G. c #807E76",
"H. c #84717A",
"J. c #89767E",
"K. c #008400",
"L. c #1F841A",
"P. c #1C8816",
"I. c #22831C",
"U. c #268222",
"Y. c #268521",
"T. c #298324",
"R. c #268822",
"E. c #31852E",
"W. c #299223",
"Q. c #8C6B80",
"!. c #916F86",
"~. c #8D7582",
"^. c #9B748E",
"/. c #98788C",
"(. c #97748D",
"). c #AB7AA1",
"_. c #8B8082",
"`. c #908186",
"'. c #9A8D91",
"]. c #B0ACA7",
/* pixels */
"                                                                ",
"                                                                ",
"                  U.I.    2.1.I.I.T.T.                          ",
"                L.L.L.>.%.&.o.=.I.K.@.I.                        ",
"            Y.L.L.&.9...T $...U #.c.u.K I.Y.T.T.                ",
"            I.%.%.$.=.$.[ L ! W ] _.c.K t.P.+.P.T.              ",
"          :.2.R X.O...L 9.0.K } 9.X.] ..H ;.p.&.{ +.W.          ",
"        =.-.P.X.X.J <.H M.G.K K Z.H.N 9.N.i.(.K x.n.{ E.        ",
"        %.&.u.%.X.[ P ' U V ' G R G ] 0.J.] Q ] b.D.{ y.        ",
"    T.=...! <.T D U 6 H H N 1 F Z V Y C m Y L ) m ] *.&.        ",
"  Y.-...,...[ P L L m F.e.0.F.m Y G C H Z C ` N [ ,.J ..        ",
"  :.=.K K ! R P y 9.H A.q.5.A.m F S N `.h.m K ~.v.H L r.'.<.    ",
":.$.K e.C.N / N A.A.m 1 1 B m Y Z 7 m a.w.H m g.q.H P ,.c.:.    ",
"1.1.K z.H.m ` T P V V ^ V P ^ M / m m.V.m ~ 6 m H Y L H K %.    ",
"  O.! ] H /.s.N V V ~ N S.A., ( m N h.j.1 W M ) v.Z P D W T     ",
"  &.R Y Q q.Q M A m 3 m 3.4.3 , l.m.m , S Y N 6.!.3 D U ] ..    ",
"  Z ..' F m J C M q.~ >   e 6 , l.m., ) V V V C ~ U Z 6 w.T     ",
"  $.F , 1 7 3 C , ).f..       r o : F Z V 6 m 6.(.A N 3.^.!     ",
"  U N Q.e.N C 9 0     ;       $ a t   4 V E S V F D V U W '     ",
"  ( B m.3.M 2 8 a     f d   k.b..     O q , 1 A M Z V V         ",
"    U 1 M 5     X c   * n X ].  .   v k     f., 6 C M w         ",
"                    b i l u B.    s d x     d.# 5 5 <           ",
"                        = z @     p f = l s d                   ",
"                          + c q   d %                           ",
"                          % s -   -                             ",
"                            d s - j                             ",
"                            f d d g                             ",
"                            p f i -                             ",
"                            g d i f                             ",
"                            i d d f                             ",
"                            = s d -                             ",
"                            & i g = x                           "
};
