/* XPM */
static char *_6c4fac68ab3497cdb52f63e1d6b1eb3diM9oZ8AQOtMGCGU[] = {
/* columns rows colors chars-per-pixel */
"32 32 2 1 ",
"  c grey",
". c black",
/* pixels */
"                                ",
"                             .. ",
"                            ... ",
"  ..                        ... ",
"  ...                       ... ",
"  ...                      ...  ",
"  ....                     ...  ",
"   ...                     ...  ",
"   ...                    ....  ",
"   ....                   ...   ",
"    ..                   ....   ",
"    ...                  ...    ",
"    ...                  ...    ",
"     ..                 ....    ",
"     ...                ....    ",
"     ...        ..      ...     ",
"      ..       ...      ...     ",
"      ...     ....      ...     ",
"      ...     .....     ...     ",
"      ...    ......     ..      ",
"      ....   .......   ...      ",
"       ...   ... ...   ...      ",
"       ...   ...  ...  ...      ",
"       ....  ...  ...  ...      ",
"        ... ...   .......       ",
"        ... ...    ......       ",
"        .......    ......       ",
"         .....     .....        ",
"         .....      ....        ",
"         .....      ....        ",
"          ...        ..         ",
"          ...                   "
};
